<?xml version="1.0" standalone="no"?><!DOCTYPE svg PUBLIC "-//W3C//DTD SVG 1.1//EN"
        "http://www.w3.org/Graphics/SVG/1.1/DTD/svg11.dtd">
<svg t="1611676010998" class="icon" viewBox="0 0 1086 1024" version="1.1" xmlns="http://www.w3.org/2000/svg" p-id="1345"
     width="36" height="36">
    <defs>
        <style type="text/css"></style>
    </defs>
    <path d="M653.524293 133.669463C626.762927 89.162927 578.222829 31.681561 497.639024 11.251512c-132.782829-33.379902-236.818732 54.571707-241.164487 58.318049a29.596098 29.596098 0 0 0-10.215025 24.538537c0.611902 6.106537 13.861463 149.641366 176.902244 193.461073 62.588878 16.920976 112.515122 12.737561 150.852683 0.374634 6.705951-2.347707 10.364878 4.283317 7.242927 11.214049a486.062829 486.062829 0 0 1-151.002537 163.203122c-11.126634 6.780878-21.566439 3.584-29.571122-4.732878-41.921561-47.403707-102.899512-77.361951-171.12039-77.361952C103.349073 380.253659 0.62439 482.940878 0.62439 609.155122c0 126.226732 102.737171 228.988878 228.963903 228.988878S458.552195 735.394341 458.552195 609.155122a227.527805 227.527805 0 0 0-10.289951-67.921171c-5.569561-13.262049-2.372683-22.028488 7.467707-29.109073 58.305561-38.424976 138.414829-108.618927 193.061464-225.629658 2.747317-6.094049 10.989268-8.004683 14.785561-0.91161 21.653854 55.108683 50.762927 159.306927 44.981073 254.588878 0.149854 9.678049-5.494634 14.785561-19.818147 16.084292-120.582244 6.331317-216.788293 106.408585-216.788292 228.676683 0 126.226732 102.599805 229.063805 228.97639 229.063805 126.151805 0 228.97639-102.837073 228.97639-229.063805 0-98.179122-62.276683-181.947317-149.404097-214.503024-13.262049-3.87122-16.458927-13.336976-16.608781-21.029463 4.420683-79.047805-7.168-151.164878-23.252292-210.169756-3.121951-8.067122 2.060488-16.296585 14.023804-10.589659 27.061073 9.453268 59.229659 15.634732 97.792 15.634732 168.910049 0.074927 219.061073-135.068098 221.121561-140.787513a29.433756 29.433756 0 0 0-3.359219-26.374243c-3.271805-4.807805-80.871024-116.785951-217.687415-118.996293-82.769171-1.286244-144.508878 41.172293-181.859902 77.074732-6.556098 4.333268-14.11122 2.972098-17.145756-1.536"
          fill="#231916" p-id="1346"></path>
    <path d="M229.538341 438.808976c-93.833366 0-170.358634 76.450341-170.358634 170.358634 0 94.070634 76.525268 170.520976 170.358634 170.520975 94.058146 0 170.433561-76.450341 170.433561-170.520975 0-93.908293-76.375415-170.358634-170.433561-170.358634"
          fill="#E73535" p-id="1347"></path>
    <path d="M311.420878 117.822439c11.363902 34.291512 42.683317 90.549073 127.063415 113.339317 85.291707 23.027512 138.727024-2.972098 166.537366-24.613463 7.317854-5.419707 11.064195-18.294634 7.317853-26.374244-18.057366-35.290537-57.918439-94.145561-129.123902-112.140488-68.583024-17.29561-129.036488 8.616585-161.96683 28.060098-6.318829 3.584-12.725073 13.262049-9.827902 21.72878"
          fill="#15AB4A" p-id="1348"></path>
    <path d="M530.481951 784.983415c0 93.98322 76.375415 170.446049 170.433561 170.446048s170.433561-76.462829 170.433561-170.446048c0-93.98322-76.375415-170.358634-170.433561-170.358635S530.481951 691.000195 530.481951 784.983415"
          fill="#E73535" p-id="1349"></path>
    <path d="M1004.556488 209.420488c-20.042927 30.183024-64.786732 76.225561-151.976586 76.225561h-0.087414c-93.98322 0-138.489756-43.457561-157.696-71.804878-5.944195-8.154537 0.149854-19.893073 4.957658-24.551025 27.123512-29.421268 80.259122-73.777951 151.901659-72.641561 70.730927 1.148878 122.343024 41.771707 149.091902 69.057561 5.182439 4.657951 10.215024 16.321561 3.808781 23.714342"
          fill="#15AB4A" p-id="1350"></path>
</svg>