<?xml version="1.0" standalone="no"?><!DOCTYPE svg PUBLIC "-//W3C//DTD SVG 1.1//EN"
        "http://www.w3.org/Graphics/SVG/1.1/DTD/svg11.dtd">
<svg t="1611675371934" class="icon" viewBox="0 0 1024 1024" version="1.1" xmlns="http://www.w3.org/2000/svg" p-id="804"
     width="16" height="16">
    <defs>
        <style type="text/css"></style>
    </defs>
    <path d="M880 112h-736a32 32 0 0 0-32 32v736a32 32 0 0 0 32 32h736a32 32 0 0 0 32-32v-736a32 32 0 0 0-32-32z m-40 728H184V184h656v656zM304.768 523.968h50.752a6.784 6.784 0 0 0 6.784-6.784v-78.912a35.52 35.52 0 0 1 35.52-35.584h205.696v53.44c0 5.696 6.464 8.768 10.88 5.248l109.12-85.696a6.816 6.816 0 0 0 0-10.688L614.4 279.296a6.72 6.72 0 0 0-10.88 5.28V337.984h-205.824c-55.04 0-99.712 44.8-99.712 100.096v78.912c0 4.032 3.008 7.04 6.848 7.04z m-4.16 134.912l109.12 85.76c4.352 3.456 10.88 0.256 10.88-5.312v-53.44h205.696c55.04 0 99.712-44.8 99.712-100.096V506.88a6.784 6.784 0 0 0-6.784-6.784H668.48a6.784 6.784 0 0 0-6.784 6.784v78.976a35.52 35.52 0 0 1-35.52 35.52h-205.568V568v-0.032a6.72 6.72 0 0 0-10.88-5.28l-109.12 85.76a6.592 6.592 0 0 0 0 10.432z"
          p-id="805"></path>
</svg>